<svg xmlns="http://www.w3.org/2000/svg" xmlns:xlink="http://www.w3.org/1999/xlink" width="1832" zoomAndPan="magnify" viewBox="0 0 1374 1502.999938" height="2004" preserveAspectRatio="xMidYMid meet" version="1.0"><defs><g/><clipPath id="2d6b67deea"><path d="M 182 1240.535156 L 1191 1240.535156 L 1191 1500 L 182 1500 Z M 182 1240.535156 " clip-rule="nonzero"/></clipPath><clipPath id="6b59eaa5b0"><rect x="0" width="941" y="0" height="797"/></clipPath></defs><path fill="#d7ccc8" d="M 1191.441406 297.1875 C 1191.441406 218.328125 1160.125 142.703125 1104.359375 86.949219 C 1048.597656 31.1875 972.972656 -0.140625 894.121094 -0.140625 C 763.863281 -0.140625 609.292969 -0.140625 479.042969 -0.140625 C 400.183594 -0.140625 324.558594 31.1875 268.792969 86.949219 C 213.039062 142.703125 181.710938 218.328125 181.710938 297.1875 L 181.710938 330.8125 C 181.710938 363.085938 194.53125 394.039062 217.351562 416.859375 C 240.171875 439.679688 271.125 452.5 303.398438 452.5 C 490.792969 452.5 882.363281 452.5 1069.757812 452.5 C 1102.03125 452.5 1132.980469 439.679688 1155.804688 416.859375 C 1178.625 394.039062 1191.441406 363.085938 1191.441406 330.8125 C 1191.441406 320.050781 1191.441406 308.785156 1191.441406 297.1875 Z M 1156.628906 297.1875 L 1156.628906 330.8125 C 1156.628906 353.851562 1147.472656 375.945312 1131.183594 392.242188 C 1114.890625 408.527344 1092.796875 417.679688 1069.757812 417.679688 L 303.398438 417.679688 C 280.359375 417.679688 258.265625 408.527344 241.96875 392.242188 C 225.683594 375.945312 216.535156 353.851562 216.535156 330.8125 C 216.535156 330.8125 216.535156 297.1875 216.535156 297.1875 C 216.535156 227.570312 244.183594 160.792969 293.421875 111.566406 C 342.648438 62.339844 409.417969 34.679688 479.042969 34.679688 C 609.292969 34.679688 763.863281 34.679688 894.121094 34.679688 C 963.738281 34.679688 1030.507812 62.339844 1079.742188 111.566406 C 1128.972656 160.792969 1156.628906 227.570312 1156.628906 297.1875 Z M 510.570312 187.109375 C 521.609375 187.109375 530.574219 199.761719 530.574219 215.351562 C 530.574219 230.9375 521.609375 243.589844 510.570312 243.589844 C 499.523438 243.589844 490.558594 230.9375 490.558594 215.351562 C 490.558594 199.761719 499.523438 187.109375 510.570312 187.109375 Z M 627.910156 187.109375 C 638.949219 187.109375 647.917969 199.761719 647.917969 215.351562 C 647.917969 230.9375 638.949219 243.589844 627.910156 243.589844 C 616.863281 243.589844 607.898438 230.9375 607.898438 215.351562 C 607.898438 199.761719 616.863281 187.109375 627.910156 187.109375 Z M 745.253906 187.109375 C 756.292969 187.109375 765.265625 199.761719 765.265625 215.351562 C 765.265625 230.9375 756.292969 243.589844 745.253906 243.589844 C 734.207031 243.589844 725.238281 230.9375 725.238281 215.351562 C 725.238281 199.761719 734.207031 187.109375 745.253906 187.109375 Z M 862.59375 187.109375 C 873.640625 187.109375 882.605469 199.761719 882.605469 215.351562 C 882.605469 230.9375 873.640625 243.589844 862.59375 243.589844 C 851.546875 243.589844 842.578125 230.9375 842.578125 215.351562 C 842.578125 199.761719 851.546875 187.109375 862.59375 187.109375 Z M 979.933594 187.109375 C 990.980469 187.109375 999.949219 199.761719 999.949219 215.351562 C 999.949219 230.9375 990.980469 243.589844 979.933594 243.589844 C 968.886719 243.589844 959.921875 230.9375 959.921875 215.351562 C 959.921875 199.761719 968.886719 187.109375 979.933594 187.109375 Z M 393.222656 187.109375 C 404.269531 187.109375 413.234375 199.761719 413.234375 215.351562 C 413.234375 230.9375 404.269531 243.589844 393.222656 243.589844 C 382.183594 243.589844 373.214844 230.9375 373.214844 215.351562 C 373.214844 199.761719 382.183594 187.109375 393.222656 187.109375 Z M 451.898438 104.3125 C 462.9375 104.3125 471.90625 116.972656 471.90625 132.558594 C 471.90625 148.144531 462.9375 160.792969 451.898438 160.792969 C 440.851562 160.792969 431.886719 148.144531 431.886719 132.558594 C 431.886719 116.972656 440.851562 104.3125 451.898438 104.3125 Z M 569.242188 104.3125 C 580.28125 104.3125 589.246094 116.972656 589.246094 132.558594 C 589.246094 148.144531 580.28125 160.792969 569.242188 160.792969 C 558.195312 160.792969 549.226562 148.144531 549.226562 132.558594 C 549.226562 116.972656 558.195312 104.3125 569.242188 104.3125 Z M 686.582031 104.3125 C 697.621094 104.3125 706.585938 116.972656 706.585938 132.558594 C 706.585938 148.144531 697.621094 160.792969 686.582031 160.792969 C 675.535156 160.792969 666.566406 148.144531 666.566406 132.558594 C 666.566406 116.972656 675.535156 104.3125 686.582031 104.3125 Z M 803.921875 104.3125 C 814.960938 104.3125 823.9375 116.972656 823.9375 132.558594 C 823.9375 148.144531 814.960938 160.792969 803.921875 160.792969 C 792.875 160.792969 783.910156 148.144531 783.910156 132.558594 C 783.910156 116.972656 792.875 104.3125 803.921875 104.3125 Z M 921.261719 104.3125 C 932.3125 104.3125 941.277344 116.972656 941.277344 132.558594 C 941.277344 148.144531 932.3125 160.792969 921.261719 160.792969 C 910.214844 160.792969 901.25 148.144531 901.25 132.558594 C 901.25 116.972656 910.214844 104.3125 921.261719 104.3125 Z M 921.261719 104.3125 " fill-opacity="1" fill-rule="evenodd"/><g clip-path="url(#2d6b67deea)"><path fill="#d7ccc8" d="M 1190.242188 1348.949219 C 1190.242188 1348.925781 1190.242188 1348.902344 1190.242188 1348.875 C 1190.242188 1289.042969 1141.734375 1240.535156 1081.902344 1240.535156 C 896.40625 1240.535156 476.695312 1240.535156 291.207031 1240.535156 C 231.375 1240.535156 182.867188 1289.042969 182.867188 1348.875 C 182.867188 1348.902344 182.867188 1348.925781 182.867188 1348.949219 C 182.867188 1388.898438 198.734375 1427.210938 226.984375 1455.460938 C 255.230469 1483.710938 293.546875 1499.574219 333.492188 1499.574219 C 519.234375 1499.574219 853.871094 1499.574219 1039.617188 1499.574219 C 1079.5625 1499.574219 1117.875 1483.710938 1146.125 1455.460938 C 1174.367188 1427.210938 1190.242188 1388.898438 1190.242188 1348.949219 Z M 1155.699219 1348.949219 C 1155.699219 1379.738281 1143.472656 1409.261719 1121.699219 1431.039062 C 1099.929688 1452.808594 1070.402344 1465.035156 1039.617188 1465.035156 C 853.871094 1465.035156 519.234375 1465.035156 333.492188 1465.035156 C 302.703125 1465.035156 273.179688 1452.808594 251.402344 1431.039062 C 229.636719 1409.261719 217.410156 1379.738281 217.410156 1348.949219 C 217.410156 1348.925781 217.410156 1348.902344 217.410156 1348.875 C 217.410156 1308.117188 250.449219 1275.078125 291.207031 1275.078125 C 291.207031 1275.078125 1081.902344 1275.078125 1081.902344 1275.078125 C 1122.660156 1275.078125 1155.699219 1308.117188 1155.699219 1348.875 Z M 1155.699219 1348.949219 " fill-opacity="1" fill-rule="evenodd"/></g><g transform="matrix(1, 0, 0, 1, 213, 491)"><g clip-path="url(#6b59eaa5b0)"><g fill="#ffffff" fill-opacity="1"><g transform="translate(114.496236, 299.208656)"><g><path d="M 137.609375 -262.109375 C 138.941406 -260.253906 139.875 -258.195312 140.40625 -255.9375 C 140.9375 -253.6875 141.332031 -251.367188 141.59375 -248.984375 C 142.382812 -241.554688 142.976562 -234.128906 143.375 -226.703125 C 143.78125 -219.285156 143.71875 -211.726562 143.1875 -204.03125 C 142.914062 -197.9375 142.515625 -191.707031 141.984375 -185.34375 C 141.460938 -178.976562 140.9375 -172.75 140.40625 -166.65625 C 140.132812 -162.675781 139.664062 -158.765625 139 -154.921875 C 138.34375 -151.078125 137.75 -147.296875 137.21875 -143.578125 C 136.15625 -136.421875 133.238281 -130.125 128.46875 -124.6875 C 123.695312 -119.25 117.726562 -115.867188 110.5625 -114.546875 C 103.144531 -113.484375 95.789062 -112.753906 88.5 -112.359375 C 81.207031 -111.960938 73.847656 -111.765625 66.421875 -111.765625 C 65.628906 -111.492188 64.832031 -111.359375 64.03125 -111.359375 C 63.238281 -111.359375 62.3125 -111.226562 61.25 -110.96875 C 61.25 -110.175781 61.179688 -109.445312 61.046875 -108.78125 C 60.921875 -108.113281 60.859375 -107.515625 60.859375 -106.984375 C 60.585938 -102.742188 60.382812 -98.503906 60.25 -94.265625 C 60.125 -90.023438 59.925781 -85.78125 59.65625 -81.53125 C 59.65625 -79.414062 59.585938 -77.226562 59.453125 -74.96875 C 59.328125 -72.71875 59.265625 -70.53125 59.265625 -68.40625 C 59.265625 -62.570312 59.328125 -56.539062 59.453125 -50.3125 C 59.585938 -44.082031 59.523438 -37.914062 59.265625 -31.8125 C 58.992188 -28.363281 58.722656 -24.847656 58.453125 -21.265625 C 58.191406 -17.691406 57.800781 -14.050781 57.28125 -10.34375 C 56.75 -6.101562 54.957031 -2.988281 51.90625 -1 C 48.851562 0.988281 45.269531 2.25 41.15625 2.78125 C 37.050781 3.3125 33.273438 3.578125 29.828125 3.578125 C 25.316406 3.578125 20.078125 2.710938 14.109375 0.984375 C 8.148438 -0.734375 4.773438 -4.375 3.984375 -9.9375 C 3.710938 -12.320312 3.378906 -14.707031 2.984375 -17.09375 C 2.585938 -19.488281 2.253906 -21.878906 1.984375 -24.265625 C 0.660156 -41.234375 0.128906 -58.132812 0.390625 -74.96875 C 0.660156 -91.8125 0.796875 -108.582031 0.796875 -125.28125 C 0.796875 -136.6875 1.390625 -148.023438 2.578125 -159.296875 C 3.773438 -170.566406 4.90625 -181.898438 5.96875 -193.296875 C 6.226562 -195.679688 6.425781 -198 6.5625 -200.25 C 6.695312 -202.507812 6.765625 -204.832031 6.765625 -207.21875 C 7.296875 -212.789062 7.625 -218.289062 7.75 -223.71875 C 7.882812 -229.15625 8.21875 -234.660156 8.75 -240.234375 C 9.007812 -243.679688 9.40625 -247.128906 9.9375 -250.578125 C 10.46875 -254.023438 11 -257.46875 11.53125 -260.90625 C 12.332031 -264.09375 13.523438 -267.273438 15.109375 -270.453125 C 16.171875 -273.109375 18.296875 -275.097656 21.484375 -276.421875 C 24.398438 -278.015625 27.515625 -279.140625 30.828125 -279.796875 C 34.140625 -280.460938 37.519531 -280.796875 40.96875 -280.796875 C 52.363281 -280.796875 63.695312 -280.597656 74.96875 -280.203125 C 86.238281 -279.804688 97.441406 -278.8125 108.578125 -277.21875 C 114.679688 -276.425781 119.984375 -274.632812 124.484375 -271.84375 C 128.992188 -269.0625 133.367188 -265.816406 137.609375 -262.109375 Z M 97.046875 -180.171875 C 98.109375 -186.535156 98.703125 -192.898438 98.828125 -199.265625 C 98.960938 -205.628906 99.03125 -211.992188 99.03125 -218.359375 C 99.03125 -221.273438 98.632812 -223.394531 97.84375 -224.71875 C 97.050781 -226.039062 95.195312 -226.835938 92.28125 -227.109375 C 88.300781 -227.898438 84.320312 -228.425781 80.34375 -228.6875 C 76.363281 -228.957031 72.519531 -229.226562 68.8125 -229.5 C 64.832031 -230.019531 62.578125 -227.765625 62.046875 -222.734375 C 61.785156 -221.140625 61.585938 -219.546875 61.453125 -217.953125 C 61.316406 -216.367188 61.25 -214.78125 61.25 -213.1875 C 60.988281 -210.269531 60.722656 -207.285156 60.453125 -204.234375 C 60.191406 -201.179688 59.925781 -198.195312 59.65625 -195.28125 C 59.394531 -191.832031 59.195312 -188.519531 59.0625 -185.34375 C 58.925781 -182.164062 58.726562 -178.851562 58.46875 -175.40625 C 57.675781 -168.769531 60.59375 -165.1875 67.21875 -164.65625 C 67.75 -164.65625 68.410156 -164.65625 69.203125 -164.65625 C 70.003906 -164.65625 70.664062 -164.65625 71.1875 -164.65625 C 77.289062 -164.65625 82.859375 -165.382812 87.890625 -166.84375 C 92.929688 -168.300781 95.984375 -172.742188 97.046875 -180.171875 Z M 97.046875 -180.171875 "/></g></g></g><g fill="#ffffff" fill-opacity="1"><g transform="translate(266.03006, 299.208656)"><g><path d="M 101.421875 -113.75 C 106.460938 -98.632812 111.765625 -83.648438 117.328125 -68.796875 C 122.898438 -53.953125 129 -39.238281 135.625 -24.65625 C 137.21875 -21.207031 138.609375 -17.492188 139.796875 -13.515625 C 140.992188 -9.546875 140.53125 -5.96875 138.40625 -2.78125 C 136.550781 0.664062 133.4375 2.851562 129.0625 3.78125 C 124.6875 4.707031 120.378906 5.171875 116.140625 5.171875 C 114.285156 5.171875 112.628906 5.101562 111.171875 4.96875 C 109.710938 4.832031 108.316406 4.765625 106.984375 4.765625 C 101.148438 4.765625 96.84375 3.835938 94.0625 1.984375 C 91.28125 0.128906 88.695312 -3.316406 86.3125 -8.359375 C 83.65625 -14.453125 80.9375 -20.613281 78.15625 -26.84375 C 75.375 -33.070312 72.65625 -39.367188 70 -45.734375 C 67.351562 -51.304688 64.96875 -57.070312 62.84375 -63.03125 C 60.71875 -69 58.195312 -74.632812 55.28125 -79.9375 C 55.019531 -76.5 54.6875 -72.988281 54.28125 -69.40625 C 53.882812 -65.820312 53.6875 -62.175781 53.6875 -58.46875 C 54.21875 -50.507812 54.414062 -42.484375 54.28125 -34.390625 C 54.15625 -26.304688 53.429688 -18.289062 52.109375 -10.34375 C 51.046875 -3.707031 47.53125 0.335938 41.5625 1.796875 C 35.59375 3.253906 29.828125 3.984375 24.265625 3.984375 C 19.222656 3.984375 13.984375 3.117188 8.546875 1.390625 C 3.109375 -0.328125 0.390625 -4.367188 0.390625 -10.734375 C 0.660156 -17.898438 0.925781 -25.0625 1.1875 -32.21875 C 1.457031 -39.375 1.59375 -46.664062 1.59375 -54.09375 C 1.59375 -60.1875 1.457031 -66.21875 1.1875 -72.1875 C 0.925781 -78.15625 0.796875 -84.054688 0.796875 -89.890625 C 0.523438 -93.066406 0.320312 -96.242188 0.1875 -99.421875 C 0.0625 -102.609375 0.128906 -105.796875 0.390625 -108.984375 C 0.921875 -113.484375 1.382812 -117.921875 1.78125 -122.296875 C 2.1875 -126.671875 2.519531 -130.984375 2.78125 -135.234375 C 3.050781 -136.816406 3.1875 -138.46875 3.1875 -140.1875 C 3.1875 -141.914062 3.1875 -143.710938 3.1875 -145.578125 C 2.382812 -154.054688 2.113281 -162.601562 2.375 -171.21875 C 2.644531 -179.84375 2.914062 -188.265625 3.1875 -196.484375 C 3.1875 -197.273438 3.1875 -198 3.1875 -198.65625 C 3.1875 -199.320312 3.1875 -199.921875 3.1875 -200.453125 C 3.71875 -208.148438 4.046875 -215.90625 4.171875 -223.71875 C 4.304688 -231.539062 4.503906 -239.300781 4.765625 -247 C 5.296875 -257.070312 7.351562 -265.15625 10.9375 -271.25 C 14.519531 -277.351562 22.007812 -280.40625 33.40625 -280.40625 C 41.09375 -280.40625 48.78125 -280.46875 56.46875 -280.59375 C 64.164062 -280.726562 71.726562 -280.796875 79.15625 -280.796875 C 82.863281 -280.796875 86.707031 -280.796875 90.6875 -280.796875 C 94.664062 -280.796875 98.507812 -280.664062 102.21875 -280.40625 C 108.3125 -280.132812 114.34375 -279.070312 120.3125 -277.21875 C 126.28125 -275.363281 130.988281 -271.914062 134.4375 -266.875 C 137.882812 -262.101562 139.9375 -256.535156 140.59375 -250.171875 C 141.257812 -243.804688 141.328125 -237.375 140.796875 -230.875 C 140.265625 -224.382812 139.734375 -218.351562 139.203125 -212.78125 C 138.941406 -206.15625 138.742188 -199.523438 138.609375 -192.890625 C 138.472656 -186.265625 138.140625 -179.503906 137.609375 -172.609375 C 137.347656 -166.773438 136.753906 -160.546875 135.828125 -153.921875 C 134.898438 -147.296875 132.910156 -141.265625 129.859375 -135.828125 C 126.804688 -130.390625 122.097656 -126.347656 115.734375 -123.703125 C 111.765625 -122.640625 107.789062 -121.84375 103.8125 -121.3125 C 103.28125 -121.039062 102.8125 -120.90625 102.40625 -120.90625 C 102.007812 -120.90625 101.550781 -120.640625 101.03125 -120.109375 C 100.5 -119.585938 100.296875 -118.925781 100.421875 -118.125 C 100.554688 -117.332031 100.757812 -116.535156 101.03125 -115.734375 C 101.03125 -115.472656 101.09375 -115.207031 101.21875 -114.9375 C 101.351562 -114.675781 101.421875 -114.28125 101.421875 -113.75 Z M 78.359375 -178.578125 C 81.273438 -180.171875 83.0625 -182.160156 83.71875 -184.546875 C 84.382812 -186.929688 84.847656 -189.453125 85.109375 -192.109375 C 85.109375 -195.023438 85.175781 -197.875 85.3125 -200.65625 C 85.445312 -203.4375 85.515625 -206.285156 85.515625 -209.203125 C 85.515625 -210.535156 85.515625 -211.992188 85.515625 -213.578125 C 85.515625 -215.171875 85.378906 -216.628906 85.109375 -217.953125 C 85.109375 -221.140625 83.519531 -222.863281 80.34375 -223.125 C 78.21875 -223.65625 76.160156 -224.1875 74.171875 -224.71875 C 72.179688 -225.25 70.128906 -225.644531 68.015625 -225.90625 C 66.953125 -226.175781 65.890625 -226.375 64.828125 -226.5 C 63.765625 -226.632812 62.707031 -226.703125 61.65625 -226.703125 C 59.53125 -226.703125 57.804688 -226.175781 56.484375 -225.125 C 55.148438 -221.40625 54.148438 -216.097656 53.484375 -209.203125 C 52.828125 -202.316406 52.628906 -195.625 52.890625 -189.125 C 53.160156 -182.625 53.828125 -177.914062 54.890625 -175 C 55.421875 -175 55.953125 -174.929688 56.484375 -174.796875 C 57.015625 -174.671875 57.539062 -174.609375 58.0625 -174.609375 C 61.507812 -174.609375 64.890625 -175.203125 68.203125 -176.390625 C 71.523438 -177.585938 74.910156 -178.316406 78.359375 -178.578125 Z M 78.359375 -178.578125 "/></g></g></g><g fill="#ffffff" fill-opacity="1"><g transform="translate(415.177512, 299.208656)"><g><path d="M 0 -110.96875 C 0.53125 -117.863281 0.992188 -126.546875 1.390625 -137.015625 C 1.785156 -147.492188 2.382812 -158.164062 3.1875 -169.03125 C 3.71875 -174.332031 4.3125 -179.632812 4.96875 -184.9375 C 5.632812 -190.25 6.097656 -195.554688 6.359375 -200.859375 C 6.890625 -206.953125 7.222656 -213.113281 7.359375 -219.34375 C 7.492188 -225.582031 7.828125 -231.75 8.359375 -237.84375 C 8.878906 -242.882812 9.472656 -247.859375 10.140625 -252.765625 C 10.804688 -257.671875 12.066406 -262.507812 13.921875 -267.28125 C 16.304688 -273.113281 20.546875 -276.160156 26.640625 -276.421875 C 29.828125 -276.421875 33.007812 -276.617188 36.1875 -277.015625 C 39.375 -277.421875 42.554688 -277.753906 45.734375 -278.015625 C 48.648438 -278.285156 51.429688 -278.421875 54.078125 -278.421875 C 56.734375 -278.421875 59.390625 -278.421875 62.046875 -278.421875 C 67.878906 -277.890625 71.0625 -274.570312 71.59375 -268.46875 C 71.851562 -265.289062 71.984375 -262.039062 71.984375 -258.71875 C 71.984375 -255.40625 71.984375 -252.023438 71.984375 -248.578125 C 71.984375 -215.441406 71.585938 -182.300781 70.796875 -149.15625 C 70.535156 -143.320312 70.40625 -137.421875 70.40625 -131.453125 C 70.40625 -125.484375 70.269531 -119.453125 70 -113.359375 C 70 -112.296875 70 -111.300781 70 -110.375 C 70 -109.445312 69.734375 -108.453125 69.203125 -107.390625 C 68.140625 -103.941406 67.675781 -100.296875 67.8125 -96.453125 C 67.945312 -92.609375 67.878906 -88.828125 67.609375 -85.109375 C 67.609375 -81.140625 67.539062 -77.097656 67.40625 -72.984375 C 67.28125 -68.867188 66.820312 -64.691406 66.03125 -60.453125 C 65.757812 -57.535156 65.625 -54.484375 65.625 -51.296875 C 65.625 -48.117188 65.492188 -44.941406 65.234375 -41.765625 C 65.234375 -38.847656 65.234375 -35.796875 65.234375 -32.609375 C 65.234375 -29.429688 65.234375 -26.25 65.234375 -23.0625 C 65.234375 -16.175781 62.316406 -10.476562 56.484375 -5.96875 C 55.953125 -5.695312 55.421875 -5.363281 54.890625 -4.96875 C 54.359375 -4.570312 53.828125 -4.242188 53.296875 -3.984375 C 50.378906 -3.179688 47.328125 -2.378906 44.140625 -1.578125 C 40.960938 -0.785156 37.648438 -0.390625 34.203125 -0.390625 C 31.554688 -0.390625 28.773438 -0.789062 25.859375 -1.59375 C 24.523438 -2.125 22.992188 -2.519531 21.265625 -2.78125 C 19.546875 -3.050781 18.023438 -3.453125 16.703125 -3.984375 C 7.421875 -7.953125 2.382812 -15.109375 1.59375 -25.453125 C 0.53125 -38.179688 0.128906 -51.375 0.390625 -65.03125 C 0.660156 -78.6875 0.53125 -94 0 -110.96875 Z M 0 -110.96875 "/></g></g></g><g fill="#ffffff" fill-opacity="1"><g transform="translate(495.120593, 299.208656)"><g><path d="M 170.625 -276.828125 C 175.132812 -272.316406 177.320312 -267.609375 177.1875 -262.703125 C 177.050781 -257.796875 176.851562 -252.957031 176.59375 -248.1875 C 176.59375 -247.125 176.457031 -245.863281 176.1875 -244.40625 C 175.925781 -242.945312 175.796875 -241.554688 175.796875 -240.234375 C 175.796875 -230.421875 175.863281 -220.410156 176 -210.203125 C 176.132812 -199.992188 176.203125 -189.851562 176.203125 -179.78125 C 176.203125 -168.644531 176.265625 -157.441406 176.390625 -146.171875 C 176.523438 -134.898438 176.460938 -123.695312 176.203125 -112.5625 C 175.929688 -103.539062 175.394531 -94.390625 174.59375 -85.109375 C 173.800781 -75.828125 173.140625 -66.550781 172.609375 -57.28125 C 172.347656 -51.445312 172.082031 -45.546875 171.8125 -39.578125 C 171.550781 -33.609375 171.289062 -27.578125 171.03125 -21.484375 C 170.757812 -19.617188 170.554688 -17.820312 170.421875 -16.09375 C 170.296875 -14.375 170.097656 -12.457031 169.828125 -10.34375 C 169.296875 -6.363281 166.910156 -3.710938 162.671875 -2.390625 C 161.347656 -2.117188 160.019531 -1.785156 158.6875 -1.390625 C 157.363281 -0.992188 156.039062 -0.53125 154.71875 0 C 151.800781 1.0625 148.617188 1.59375 145.171875 1.59375 C 141.722656 1.59375 138.40625 1.0625 135.21875 0 C 132.039062 -1.0625 128.863281 -2.253906 125.6875 -3.578125 C 117.46875 -7.023438 112.957031 -13.921875 112.15625 -24.265625 C 111.09375 -38.046875 110.628906 -51.894531 110.765625 -65.8125 C 110.898438 -79.738281 110.96875 -93.597656 110.96875 -107.390625 C 111.226562 -120.648438 111.625 -133.84375 112.15625 -146.96875 C 112.6875 -160.09375 113.75 -173.148438 115.34375 -186.140625 C 114.8125 -185.609375 114.347656 -185.207031 113.953125 -184.9375 C 113.554688 -184.675781 113.09375 -184.28125 112.5625 -183.75 C 109.90625 -180.570312 107.382812 -177.457031 105 -174.40625 C 102.613281 -171.351562 100.09375 -168.238281 97.4375 -165.0625 C 95.050781 -161.875 92.132812 -160.28125 88.6875 -160.28125 C 85.769531 -160.28125 82.851562 -161.875 79.9375 -165.0625 C 78.882812 -166.914062 77.757812 -168.769531 76.5625 -170.625 C 75.375 -172.476562 74.25 -174.335938 73.1875 -176.203125 C 72.125 -178.054688 71.0625 -179.84375 70 -181.5625 C 68.9375 -183.289062 67.875 -185.082031 66.8125 -186.9375 C 66.550781 -186.664062 66.15625 -186.53125 65.625 -186.53125 C 65.625 -184.414062 65.625 -182.296875 65.625 -180.171875 C 65.625 -178.046875 65.625 -175.925781 65.625 -173.8125 C 65.363281 -162.40625 65.296875 -151 65.421875 -139.59375 C 65.554688 -128.195312 65.359375 -116.800781 64.828125 -105.40625 C 64.828125 -99.300781 64.628906 -93.066406 64.234375 -86.703125 C 63.835938 -80.335938 63.375 -73.972656 62.84375 -67.609375 C 62.570312 -59.128906 62.171875 -50.578125 61.640625 -41.953125 C 61.117188 -33.335938 60.59375 -24.65625 60.0625 -15.90625 C 59.789062 -14.84375 59.585938 -13.710938 59.453125 -12.515625 C 59.328125 -11.328125 59.128906 -10.203125 58.859375 -9.140625 C 57.804688 -5.960938 56.082031 -3.976562 53.6875 -3.1875 C 49.1875 -1.320312 45.539062 -0.128906 42.75 0.390625 C 39.96875 0.921875 36.320312 1.1875 31.8125 1.1875 C 24.925781 0.132812 18.300781 -2.046875 11.9375 -5.359375 C 5.570312 -8.679688 2.125 -14.453125 1.59375 -22.671875 C 0.53125 -40.960938 0.0625 -59.191406 0.1875 -77.359375 C 0.320312 -95.523438 0.523438 -113.753906 0.796875 -132.046875 C 1.054688 -140.796875 1.582031 -149.546875 2.375 -158.296875 C 3.175781 -167.046875 3.84375 -175.796875 4.375 -184.546875 C 4.90625 -192.503906 5.4375 -200.457031 5.96875 -208.40625 C 6.5 -216.363281 7.03125 -224.320312 7.5625 -232.28125 C 8.09375 -237.050781 8.554688 -241.820312 8.953125 -246.59375 C 9.347656 -251.363281 9.941406 -256.132812 10.734375 -260.90625 C 11.265625 -264.882812 12.65625 -269.0625 14.90625 -273.4375 C 17.164062 -277.8125 20.679688 -280 25.453125 -280 C 29.691406 -280 33.867188 -279.929688 37.984375 -279.796875 C 42.097656 -279.671875 46.140625 -279.472656 50.109375 -279.203125 C 53.828125 -279.203125 56.941406 -278.9375 59.453125 -278.40625 C 61.972656 -277.882812 64.5625 -276.03125 67.21875 -272.84375 C 71.195312 -267.800781 75.375 -262.828125 79.75 -257.921875 C 84.125 -253.023438 87.632812 -247.523438 90.28125 -241.421875 C 90.550781 -241.160156 90.816406 -241.03125 91.078125 -241.03125 C 91.347656 -241.03125 91.613281 -240.765625 91.875 -240.234375 C 92.40625 -240.765625 92.9375 -241.296875 93.46875 -241.828125 C 94 -242.359375 94.53125 -243.019531 95.0625 -243.8125 C 99.039062 -249.375 103.414062 -254.675781 108.1875 -259.71875 C 112.957031 -264.757812 117.863281 -269.53125 122.90625 -274.03125 C 125.019531 -275.625 127.140625 -277.015625 129.265625 -278.203125 C 131.390625 -279.398438 133.773438 -280 136.421875 -280 C 145.441406 -280 154.328125 -279.601562 163.078125 -278.8125 C 164.660156 -278.8125 166.113281 -278.613281 167.4375 -278.21875 C 168.769531 -277.820312 169.832031 -277.359375 170.625 -276.828125 Z M 170.625 -276.828125 "/></g></g></g><g fill="#ffffff" fill-opacity="1"><g transform="translate(680.461133, 299.208656)"><g><path d="M 141.59375 -192.109375 C 140 -190.253906 138.273438 -188.660156 136.421875 -187.328125 C 134.566406 -186.003906 132.3125 -185.078125 129.65625 -184.546875 C 128.070312 -184.285156 126.550781 -183.890625 125.09375 -183.359375 C 123.632812 -182.828125 122.238281 -182.425781 120.90625 -182.15625 C 117.195312 -181.894531 113.421875 -181.765625 109.578125 -181.765625 C 105.734375 -181.765625 101.820312 -181.628906 97.84375 -181.359375 C 92.269531 -184.015625 89.351562 -188.523438 89.09375 -194.890625 C 88.820312 -197.804688 88.421875 -200.585938 87.890625 -203.234375 C 87.367188 -205.890625 86.84375 -208.675781 86.3125 -211.59375 C 84.976562 -211.863281 83.648438 -212 82.328125 -212 C 81.003906 -212 79.679688 -212 78.359375 -212 C 75.441406 -212 72.457031 -211.734375 69.40625 -211.203125 C 66.351562 -210.671875 63.367188 -209.738281 60.453125 -208.40625 C 60.191406 -207.082031 59.796875 -205.757812 59.265625 -204.4375 C 58.734375 -203.113281 58.332031 -201.785156 58.0625 -200.453125 C 58.0625 -195.953125 58.0625 -191.378906 58.0625 -186.734375 C 58.0625 -182.097656 58.0625 -177.390625 58.0625 -172.609375 C 59.125 -172.609375 60.050781 -172.609375 60.84375 -172.609375 C 61.644531 -172.609375 62.578125 -172.609375 63.640625 -172.609375 C 67.347656 -172.878906 70.988281 -173.015625 74.5625 -173.015625 C 78.144531 -173.015625 81.660156 -173.144531 85.109375 -173.40625 C 90.148438 -173.40625 94.457031 -172.015625 98.03125 -169.234375 C 101.613281 -166.453125 103.40625 -162.410156 103.40625 -157.109375 C 103.675781 -153.390625 104.007812 -149.609375 104.40625 -145.765625 C 104.800781 -141.921875 105.132812 -138.144531 105.40625 -134.4375 C 105.40625 -132.3125 105.335938 -130.117188 105.203125 -127.859375 C 105.066406 -125.609375 104.867188 -123.425781 104.609375 -121.3125 C 103.804688 -116.007812 100.890625 -112.691406 95.859375 -111.359375 C 93.992188 -110.828125 92.203125 -110.429688 90.484375 -110.171875 C 88.765625 -109.910156 87.109375 -109.644531 85.515625 -109.375 C 82.859375 -109.113281 80.335938 -108.984375 77.953125 -108.984375 C 75.566406 -108.984375 73.179688 -108.984375 70.796875 -108.984375 C 69.203125 -108.710938 67.609375 -108.507812 66.015625 -108.375 C 64.429688 -108.25 62.84375 -107.921875 61.25 -107.390625 C 60.71875 -106.328125 60.453125 -105.53125 60.453125 -105 C 60.453125 -99.695312 60.453125 -94.328125 60.453125 -88.890625 C 60.453125 -83.453125 60.453125 -78.082031 60.453125 -72.78125 C 60.984375 -65.363281 64.960938 -61.253906 72.390625 -60.453125 C 72.648438 -60.453125 72.910156 -60.453125 73.171875 -60.453125 C 73.441406 -60.453125 73.710938 -60.453125 73.984375 -60.453125 C 76.097656 -60.453125 78.148438 -60.453125 80.140625 -60.453125 C 82.128906 -60.453125 84.1875 -60.320312 86.3125 -60.0625 C 88.425781 -62.976562 89.414062 -66.222656 89.28125 -69.796875 C 89.15625 -73.378906 89.625 -77.160156 90.6875 -81.140625 C 91.476562 -82.734375 93.660156 -83.992188 97.234375 -84.921875 C 100.816406 -85.847656 104.863281 -86.441406 109.375 -86.703125 C 113.882812 -86.972656 118.128906 -87.171875 122.109375 -87.296875 C 126.085938 -87.429688 128.867188 -87.5 130.453125 -87.5 C 132.835938 -87.769531 134.890625 -87.175781 136.609375 -85.71875 C 138.335938 -84.257812 139.734375 -82.597656 140.796875 -80.734375 C 142.390625 -78.347656 143.1875 -75.832031 143.1875 -73.1875 C 143.71875 -69.738281 144.113281 -66.15625 144.375 -62.4375 C 144.644531 -58.726562 144.78125 -55.019531 144.78125 -51.3125 C 144.78125 -47.332031 144.78125 -43.351562 144.78125 -39.375 C 144.78125 -35.394531 144.515625 -31.414062 143.984375 -27.4375 C 143.179688 -21.070312 140.265625 -15.90625 135.234375 -11.9375 C 130.722656 -8.488281 124.488281 -5.898438 116.53125 -4.171875 C 108.582031 -2.453125 100.429688 -1.390625 92.078125 -0.984375 C 83.722656 -0.585938 76.5 -0.390625 70.40625 -0.390625 C 65.363281 -0.390625 60.457031 -0.519531 55.6875 -0.78125 C 50.914062 -1.050781 46.007812 -1.585938 40.96875 -2.390625 C 28.238281 -3.972656 19.351562 -7.484375 14.3125 -12.921875 C 9.28125 -18.359375 5.570312 -27.3125 3.1875 -39.78125 C 1.320312 -48.257812 0.457031 -56.941406 0.59375 -65.828125 C 0.726562 -74.710938 0.660156 -83.53125 0.390625 -92.28125 C 0.128906 -110.039062 0.128906 -128.066406 0.390625 -146.359375 C 0.660156 -153.253906 1.0625 -160.082031 1.59375 -166.84375 C 2.125 -173.601562 2.519531 -180.300781 2.78125 -186.9375 C 3.3125 -195.414062 3.507812 -204.160156 3.375 -213.171875 C 3.25 -222.191406 4.242188 -230.941406 6.359375 -239.421875 C 8.484375 -247.910156 12.859375 -255.472656 19.484375 -262.109375 C 24.523438 -267.410156 30.691406 -271.320312 37.984375 -273.84375 C 45.273438 -276.363281 52.832031 -278.019531 60.65625 -278.8125 C 68.476562 -279.601562 75.835938 -280 82.734375 -280 C 86.972656 -280 91.210938 -279.929688 95.453125 -279.796875 C 99.691406 -279.671875 103.9375 -279.609375 108.1875 -279.609375 C 113.488281 -279.609375 119.253906 -279.078125 125.484375 -278.015625 C 131.710938 -276.953125 135.890625 -273.640625 138.015625 -268.078125 C 138.804688 -266.210938 139.597656 -264.351562 140.390625 -262.5 C 141.191406 -260.644531 141.988281 -258.789062 142.78125 -256.9375 C 143.582031 -254.8125 143.914062 -252.554688 143.78125 -250.171875 C 143.644531 -247.785156 143.3125 -245.53125 142.78125 -243.40625 C 142.519531 -242.082031 142.390625 -240.757812 142.390625 -239.4375 C 142.390625 -238.113281 142.390625 -236.785156 142.390625 -235.453125 C 142.117188 -228.296875 141.914062 -221.070312 141.78125 -213.78125 C 141.65625 -206.488281 141.59375 -199.265625 141.59375 -192.109375 Z M 141.59375 -192.109375 "/></g></g></g><g fill="#ffffff" fill-opacity="1"><g transform="translate(7.319428, 696.41783)"><g><path d="M 143.578125 -114.546875 C 144.109375 -114.546875 145.171875 -114.28125 146.765625 -113.75 C 150.472656 -113.488281 153.519531 -111.632812 155.90625 -108.1875 C 159.351562 -103.9375 161.273438 -98.296875 161.671875 -91.265625 C 162.078125 -84.242188 162.410156 -78.082031 162.671875 -72.78125 C 162.941406 -66.15625 162.8125 -59.523438 162.28125 -52.890625 C 161.75 -46.265625 160.816406 -39.640625 159.484375 -33.015625 C 159.222656 -31.421875 158.894531 -29.757812 158.5 -28.03125 C 158.101562 -26.3125 157.375 -24.65625 156.3125 -23.0625 C 153.125 -16.695312 148.082031 -12.253906 141.1875 -9.734375 C 134.300781 -7.222656 127.007812 -5.703125 119.3125 -5.171875 C 111.625 -4.640625 104.734375 -3.976562 98.640625 -3.1875 C 94.921875 -2.914062 91.140625 -2.78125 87.296875 -2.78125 C 83.453125 -2.78125 79.675781 -2.648438 75.96875 -2.390625 C 71.726562 -2.117188 67.421875 -1.847656 63.046875 -1.578125 C 58.671875 -1.316406 54.226562 -1.1875 49.71875 -1.1875 C 45.738281 -1.457031 41.757812 -1.65625 37.78125 -1.78125 C 33.800781 -1.914062 29.828125 -2.382812 25.859375 -3.1875 C 22.410156 -4.238281 18.628906 -6.023438 14.515625 -8.546875 C 10.410156 -11.066406 7.5625 -14.050781 5.96875 -17.5 C 1.195312 -28.90625 -0.660156 -40.707031 0.390625 -52.90625 C 0.660156 -56.875 0.859375 -60.910156 0.984375 -65.015625 C 1.117188 -69.128906 1.1875 -73.3125 1.1875 -77.5625 C 1.1875 -84.976562 1.050781 -92.332031 0.78125 -99.625 C 0.519531 -106.914062 0.523438 -114.273438 0.796875 -121.703125 C 0.796875 -131.515625 0.925781 -141.191406 1.1875 -150.734375 C 1.457031 -160.285156 1.722656 -169.832031 1.984375 -179.375 C 2.253906 -183.882812 2.320312 -188.328125 2.1875 -192.703125 C 2.050781 -197.078125 1.984375 -201.382812 1.984375 -205.625 C 1.722656 -214.375 1.523438 -223.125 1.390625 -231.875 C 1.253906 -240.625 1.1875 -249.375 1.1875 -258.125 C 1.1875 -263.164062 2.84375 -267.675781 6.15625 -271.65625 C 9.476562 -275.632812 13.65625 -277.753906 18.6875 -278.015625 C 40.96875 -278.804688 63.109375 -279.203125 85.109375 -279.203125 C 89.890625 -279.472656 94.597656 -279.609375 99.234375 -279.609375 C 103.867188 -279.609375 108.578125 -279.738281 113.359375 -280 C 118.660156 -280 123.628906 -279.46875 128.265625 -278.40625 C 132.910156 -277.351562 137.75 -275.765625 142.78125 -273.640625 C 147.820312 -270.984375 151.535156 -266.9375 153.921875 -261.5 C 156.304688 -256.070312 157.960938 -250.304688 158.890625 -244.203125 C 159.816406 -238.109375 160.28125 -232.539062 160.28125 -227.5 C 160.8125 -220.875 161.273438 -214.3125 161.671875 -207.8125 C 162.078125 -201.320312 162.410156 -194.628906 162.671875 -187.734375 C 162.941406 -179.773438 162.742188 -171.882812 162.078125 -164.0625 C 161.410156 -156.238281 160.019531 -148.484375 157.90625 -140.796875 C 157.632812 -139.734375 157.429688 -138.738281 157.296875 -137.8125 C 157.171875 -136.882812 156.972656 -135.890625 156.703125 -134.828125 C 156.171875 -132.710938 155.441406 -130.660156 154.515625 -128.671875 C 153.585938 -126.679688 152.195312 -124.757812 150.34375 -122.90625 C 149.28125 -121.84375 148.21875 -120.582031 147.15625 -119.125 C 146.101562 -117.664062 144.910156 -116.140625 143.578125 -114.546875 Z M 60.453125 -140 C 61.253906 -139.738281 62.050781 -139.609375 62.84375 -139.609375 C 63.632812 -139.609375 64.429688 -139.609375 65.234375 -139.609375 C 69.472656 -139.867188 73.644531 -140.328125 77.75 -140.984375 C 81.863281 -141.648438 86.039062 -142.515625 90.28125 -143.578125 C 94.257812 -145.171875 96.976562 -146.828125 98.4375 -148.546875 C 99.894531 -150.273438 100.757812 -153.523438 101.03125 -158.296875 C 101.820312 -163.597656 102.347656 -169.03125 102.609375 -174.59375 C 102.878906 -180.164062 103.015625 -185.601562 103.015625 -190.90625 C 102.742188 -195.414062 102.804688 -199.789062 103.203125 -204.03125 C 103.609375 -208.28125 103.675781 -212.523438 103.40625 -216.765625 C 103.144531 -220.742188 100.894531 -223.265625 96.65625 -224.328125 C 95.59375 -224.585938 94.53125 -224.71875 93.46875 -224.71875 C 92.40625 -224.71875 91.210938 -224.71875 89.890625 -224.71875 C 86.703125 -224.457031 83.582031 -224.257812 80.53125 -224.125 C 77.488281 -223.988281 74.375 -223.65625 71.1875 -223.125 C 69.332031 -222.863281 67.410156 -222.53125 65.421875 -222.125 C 63.429688 -221.726562 61.378906 -221.398438 59.265625 -221.140625 C 58.992188 -221.140625 58.859375 -219.546875 58.859375 -216.359375 C 58.859375 -213.179688 58.925781 -209.40625 59.0625 -205.03125 C 59.195312 -200.65625 59.265625 -196.675781 59.265625 -193.09375 C 59.265625 -189.519531 59.265625 -187.332031 59.265625 -186.53125 C 58.203125 -174.070312 57.40625 -161.210938 56.875 -147.953125 C 56.875 -146.890625 56.941406 -145.757812 57.078125 -144.5625 C 57.210938 -143.375 57.675781 -142.382812 58.46875 -141.59375 C 58.726562 -141.0625 59.390625 -140.53125 60.453125 -140 Z M 57.671875 -60.0625 C 60.585938 -59.789062 63.566406 -59.585938 66.609375 -59.453125 C 69.660156 -59.328125 72.644531 -59.128906 75.5625 -58.859375 C 77.6875 -58.859375 79.941406 -58.859375 82.328125 -58.859375 C 84.710938 -58.859375 86.96875 -58.859375 89.09375 -58.859375 C 90.414062 -58.859375 91.609375 -58.859375 92.671875 -58.859375 C 93.734375 -58.859375 94.796875 -58.859375 95.859375 -58.859375 C 102.222656 -58.859375 105.929688 -62.175781 106.984375 -68.8125 C 107.253906 -69.601562 107.453125 -70.53125 107.578125 -71.59375 C 107.710938 -72.65625 107.648438 -73.71875 107.390625 -74.78125 C 107.390625 -75.300781 107.253906 -75.957031 106.984375 -76.75 C 106.722656 -77.550781 106.457031 -78.351562 106.1875 -79.15625 C 103.800781 -79.414062 101.414062 -79.609375 99.03125 -79.734375 C 96.644531 -79.867188 94.394531 -79.9375 92.28125 -79.9375 C 86.707031 -79.9375 81.203125 -79.601562 75.765625 -78.9375 C 70.328125 -78.28125 64.828125 -77.289062 59.265625 -75.96875 C 58.992188 -73.582031 58.722656 -71.257812 58.453125 -69 C 58.191406 -66.75 57.800781 -64.5625 57.28125 -62.4375 C 57.28125 -62.175781 57.34375 -61.847656 57.46875 -61.453125 C 57.601562 -61.054688 57.671875 -60.59375 57.671875 -60.0625 Z M 57.671875 -60.0625 "/></g></g></g><g fill="#ffffff" fill-opacity="1"><g transform="translate(178.341904, 696.41783)"><g><path d="M 58.859375 -275.625 C 60.984375 -273.769531 62.046875 -271.117188 62.046875 -267.671875 C 61.785156 -261.304688 61.519531 -254.941406 61.25 -248.578125 C 60.988281 -242.210938 60.722656 -235.851562 60.453125 -229.5 C 60.453125 -224.457031 60.519531 -219.414062 60.65625 -214.375 C 60.789062 -209.34375 60.859375 -204.175781 60.859375 -198.875 C 60.859375 -196.75 60.921875 -194.625 61.046875 -192.5 C 61.179688 -190.382812 61.117188 -188.265625 60.859375 -186.140625 C 60.328125 -180.304688 60.125 -174.535156 60.25 -168.828125 C 60.382812 -163.128906 60.71875 -157.363281 61.25 -151.53125 C 61.78125 -145.164062 61.976562 -138.867188 61.84375 -132.640625 C 61.71875 -126.410156 61.390625 -120.113281 60.859375 -113.75 C 60.585938 -108.445312 60.382812 -103.144531 60.25 -97.84375 C 60.125 -92.539062 59.925781 -87.238281 59.65625 -81.9375 C 59.394531 -78.488281 59.992188 -75.632812 61.453125 -73.375 C 62.910156 -71.125 66.023438 -69.46875 70.796875 -68.40625 C 72.390625 -68.9375 74.046875 -69.398438 75.765625 -69.796875 C 77.492188 -70.203125 79.148438 -70.664062 80.734375 -71.1875 C 82.859375 -71.988281 84.648438 -73.179688 86.109375 -74.765625 C 87.566406 -76.359375 88.296875 -78.484375 88.296875 -81.140625 C 88.296875 -85.117188 88.359375 -89.09375 88.484375 -93.0625 C 88.617188 -97.039062 88.6875 -101.15625 88.6875 -105.40625 C 88.957031 -108.84375 89.15625 -112.148438 89.28125 -115.328125 C 89.414062 -118.515625 89.617188 -121.832031 89.890625 -125.28125 C 89.890625 -134.5625 89.820312 -143.84375 89.6875 -153.125 C 89.550781 -162.40625 89.351562 -171.6875 89.09375 -180.96875 C 88.820312 -194.226562 88.554688 -207.550781 88.296875 -220.9375 C 88.035156 -234.332031 88.960938 -247.523438 91.078125 -260.515625 C 91.609375 -263.429688 92.269531 -266.148438 93.0625 -268.671875 C 93.863281 -271.191406 95.191406 -273.378906 97.046875 -275.234375 C 99.171875 -277.359375 101.753906 -278.679688 104.796875 -279.203125 C 107.847656 -279.734375 110.832031 -280 113.75 -280 C 127.007812 -280 135.757812 -277.015625 140 -271.046875 C 144.238281 -265.085938 146.359375 -256.007812 146.359375 -243.8125 C 146.097656 -230.289062 145.632812 -216.832031 144.96875 -203.4375 C 144.3125 -190.050781 143.984375 -176.726562 143.984375 -163.46875 C 143.710938 -158.425781 143.507812 -153.519531 143.375 -148.75 C 143.25 -143.976562 143.050781 -139.070312 142.78125 -134.03125 C 142.78125 -132.175781 142.710938 -130.453125 142.578125 -128.859375 C 142.453125 -127.273438 142.390625 -125.554688 142.390625 -123.703125 C 142.390625 -121.835938 142.453125 -119.976562 142.578125 -118.125 C 142.710938 -116.269531 142.914062 -114.414062 143.1875 -112.5625 C 143.445312 -110.96875 143.644531 -109.304688 143.78125 -107.578125 C 143.914062 -105.859375 143.984375 -104.203125 143.984375 -102.609375 C 143.710938 -90.410156 142.914062 -77.945312 141.59375 -65.21875 C 140.269531 -52.5 137.75 -40.304688 134.03125 -28.640625 C 131.382812 -19.359375 126.613281 -12.992188 119.71875 -9.546875 C 112.820312 -6.097656 104.734375 -3.84375 95.453125 -2.78125 C 89.617188 -1.988281 83.648438 -1.523438 77.546875 -1.390625 C 71.453125 -1.253906 65.359375 -1.1875 59.265625 -1.1875 C 46.273438 -1.1875 35.929688 -3.375 28.234375 -7.75 C 20.546875 -12.125 14.78125 -18.15625 10.9375 -25.84375 C 7.09375 -33.539062 4.503906 -42.289062 3.171875 -52.09375 C 1.847656 -61.90625 1.054688 -72.382812 0.796875 -83.53125 C 0.523438 -93.070312 0.390625 -102.613281 0.390625 -112.15625 C 0.390625 -121.707031 0.523438 -131.125 0.796875 -140.40625 C 1.328125 -150.207031 2.054688 -159.816406 2.984375 -169.234375 C 3.910156 -178.648438 4.90625 -188.128906 5.96875 -197.671875 C 6.226562 -200.054688 6.359375 -202.507812 6.359375 -205.03125 C 6.359375 -207.550781 6.492188 -210.003906 6.765625 -212.390625 C 7.023438 -217.429688 7.285156 -222.398438 7.546875 -227.296875 C 7.816406 -232.203125 8.085938 -237.175781 8.359375 -242.21875 C 8.359375 -245.40625 9.019531 -248.71875 10.34375 -252.15625 C 12.988281 -258.519531 16.101562 -264.550781 19.6875 -270.25 C 23.269531 -275.957031 29.035156 -278.8125 36.984375 -278.8125 C 40.703125 -278.8125 44.414062 -278.613281 48.125 -278.21875 C 51.832031 -277.820312 55.410156 -276.957031 58.859375 -275.625 Z M 58.859375 -275.625 "/></g></g></g><g fill="#ffffff" fill-opacity="1"><g transform="translate(332.659803, 696.41783)"><g><path d="M 101.421875 -113.75 C 106.460938 -98.632812 111.765625 -83.648438 117.328125 -68.796875 C 122.898438 -53.953125 129 -39.238281 135.625 -24.65625 C 137.21875 -21.207031 138.609375 -17.492188 139.796875 -13.515625 C 140.992188 -9.546875 140.53125 -5.96875 138.40625 -2.78125 C 136.550781 0.664062 133.4375 2.851562 129.0625 3.78125 C 124.6875 4.707031 120.378906 5.171875 116.140625 5.171875 C 114.285156 5.171875 112.628906 5.101562 111.171875 4.96875 C 109.710938 4.832031 108.316406 4.765625 106.984375 4.765625 C 101.148438 4.765625 96.84375 3.835938 94.0625 1.984375 C 91.28125 0.128906 88.695312 -3.316406 86.3125 -8.359375 C 83.65625 -14.453125 80.9375 -20.613281 78.15625 -26.84375 C 75.375 -33.070312 72.65625 -39.367188 70 -45.734375 C 67.351562 -51.304688 64.96875 -57.070312 62.84375 -63.03125 C 60.71875 -69 58.195312 -74.632812 55.28125 -79.9375 C 55.019531 -76.5 54.6875 -72.988281 54.28125 -69.40625 C 53.882812 -65.820312 53.6875 -62.175781 53.6875 -58.46875 C 54.21875 -50.507812 54.414062 -42.484375 54.28125 -34.390625 C 54.15625 -26.304688 53.429688 -18.289062 52.109375 -10.34375 C 51.046875 -3.707031 47.53125 0.335938 41.5625 1.796875 C 35.59375 3.253906 29.828125 3.984375 24.265625 3.984375 C 19.222656 3.984375 13.984375 3.117188 8.546875 1.390625 C 3.109375 -0.328125 0.390625 -4.367188 0.390625 -10.734375 C 0.660156 -17.898438 0.925781 -25.0625 1.1875 -32.21875 C 1.457031 -39.375 1.59375 -46.664062 1.59375 -54.09375 C 1.59375 -60.1875 1.457031 -66.21875 1.1875 -72.1875 C 0.925781 -78.15625 0.796875 -84.054688 0.796875 -89.890625 C 0.523438 -93.066406 0.320312 -96.242188 0.1875 -99.421875 C 0.0625 -102.609375 0.128906 -105.796875 0.390625 -108.984375 C 0.921875 -113.484375 1.382812 -117.921875 1.78125 -122.296875 C 2.1875 -126.671875 2.519531 -130.984375 2.78125 -135.234375 C 3.050781 -136.816406 3.1875 -138.46875 3.1875 -140.1875 C 3.1875 -141.914062 3.1875 -143.710938 3.1875 -145.578125 C 2.382812 -154.054688 2.113281 -162.601562 2.375 -171.21875 C 2.644531 -179.84375 2.914062 -188.265625 3.1875 -196.484375 C 3.1875 -197.273438 3.1875 -198 3.1875 -198.65625 C 3.1875 -199.320312 3.1875 -199.921875 3.1875 -200.453125 C 3.71875 -208.148438 4.046875 -215.90625 4.171875 -223.71875 C 4.304688 -231.539062 4.503906 -239.300781 4.765625 -247 C 5.296875 -257.070312 7.351562 -265.15625 10.9375 -271.25 C 14.519531 -277.351562 22.007812 -280.40625 33.40625 -280.40625 C 41.09375 -280.40625 48.78125 -280.46875 56.46875 -280.59375 C 64.164062 -280.726562 71.726562 -280.796875 79.15625 -280.796875 C 82.863281 -280.796875 86.707031 -280.796875 90.6875 -280.796875 C 94.664062 -280.796875 98.507812 -280.664062 102.21875 -280.40625 C 108.3125 -280.132812 114.34375 -279.070312 120.3125 -277.21875 C 126.28125 -275.363281 130.988281 -271.914062 134.4375 -266.875 C 137.882812 -262.101562 139.9375 -256.535156 140.59375 -250.171875 C 141.257812 -243.804688 141.328125 -237.375 140.796875 -230.875 C 140.265625 -224.382812 139.734375 -218.351562 139.203125 -212.78125 C 138.941406 -206.15625 138.742188 -199.523438 138.609375 -192.890625 C 138.472656 -186.265625 138.140625 -179.503906 137.609375 -172.609375 C 137.347656 -166.773438 136.753906 -160.546875 135.828125 -153.921875 C 134.898438 -147.296875 132.910156 -141.265625 129.859375 -135.828125 C 126.804688 -130.390625 122.097656 -126.347656 115.734375 -123.703125 C 111.765625 -122.640625 107.789062 -121.84375 103.8125 -121.3125 C 103.28125 -121.039062 102.8125 -120.90625 102.40625 -120.90625 C 102.007812 -120.90625 101.550781 -120.640625 101.03125 -120.109375 C 100.5 -119.585938 100.296875 -118.925781 100.421875 -118.125 C 100.554688 -117.332031 100.757812 -116.535156 101.03125 -115.734375 C 101.03125 -115.472656 101.09375 -115.207031 101.21875 -114.9375 C 101.351562 -114.675781 101.421875 -114.28125 101.421875 -113.75 Z M 78.359375 -178.578125 C 81.273438 -180.171875 83.0625 -182.160156 83.71875 -184.546875 C 84.382812 -186.929688 84.847656 -189.453125 85.109375 -192.109375 C 85.109375 -195.023438 85.175781 -197.875 85.3125 -200.65625 C 85.445312 -203.4375 85.515625 -206.285156 85.515625 -209.203125 C 85.515625 -210.535156 85.515625 -211.992188 85.515625 -213.578125 C 85.515625 -215.171875 85.378906 -216.628906 85.109375 -217.953125 C 85.109375 -221.140625 83.519531 -222.863281 80.34375 -223.125 C 78.21875 -223.65625 76.160156 -224.1875 74.171875 -224.71875 C 72.179688 -225.25 70.128906 -225.644531 68.015625 -225.90625 C 66.953125 -226.175781 65.890625 -226.375 64.828125 -226.5 C 63.765625 -226.632812 62.707031 -226.703125 61.65625 -226.703125 C 59.53125 -226.703125 57.804688 -226.175781 56.484375 -225.125 C 55.148438 -221.40625 54.148438 -216.097656 53.484375 -209.203125 C 52.828125 -202.316406 52.628906 -195.625 52.890625 -189.125 C 53.160156 -182.625 53.828125 -177.914062 54.890625 -175 C 55.421875 -175 55.953125 -174.929688 56.484375 -174.796875 C 57.015625 -174.671875 57.539062 -174.609375 58.0625 -174.609375 C 61.507812 -174.609375 64.890625 -175.203125 68.203125 -176.390625 C 71.523438 -177.585938 74.910156 -178.316406 78.359375 -178.578125 Z M 78.359375 -178.578125 "/></g></g></g><g fill="#ffffff" fill-opacity="1"><g transform="translate(481.80724, 696.41783)"><g><path d="M 143.578125 -186.53125 C 140.128906 -185.207031 135.09375 -184.082031 128.46875 -183.15625 C 121.84375 -182.226562 115.476562 -181.765625 109.375 -181.765625 C 105.925781 -181.765625 102.8125 -181.894531 100.03125 -182.15625 C 97.25 -182.425781 95.0625 -182.957031 93.46875 -183.75 C 92.40625 -185.875 91.675781 -188.257812 91.28125 -190.90625 C 90.882812 -193.5625 90.6875 -196.21875 90.6875 -198.875 C 90.6875 -201.519531 90.6875 -204.101562 90.6875 -206.625 C 90.6875 -209.144531 90.6875 -211.726562 90.6875 -214.375 C 88.832031 -214.644531 87.039062 -214.78125 85.3125 -214.78125 C 83.59375 -214.78125 81.9375 -214.78125 80.34375 -214.78125 C 77.6875 -214.78125 75.097656 -214.644531 72.578125 -214.375 C 70.066406 -214.113281 67.484375 -213.453125 64.828125 -212.390625 C 62.710938 -208.679688 61.65625 -205.101562 61.65625 -201.65625 C 61.382812 -194.488281 61.179688 -187.328125 61.046875 -180.171875 C 60.921875 -173.015625 60.722656 -165.859375 60.453125 -158.703125 C 60.453125 -157.898438 60.519531 -157.097656 60.65625 -156.296875 C 60.789062 -155.503906 60.722656 -154.847656 60.453125 -154.328125 C 59.660156 -151.929688 60.191406 -149.410156 62.046875 -146.765625 C 63.640625 -145.972656 65.226562 -145.578125 66.8125 -145.578125 C 67.613281 -145.578125 68.476562 -145.640625 69.40625 -145.765625 C 70.332031 -145.898438 71.191406 -145.96875 71.984375 -145.96875 C 75.429688 -146.5 78.878906 -146.894531 82.328125 -147.15625 C 85.773438 -147.425781 89.222656 -147.5625 92.671875 -147.5625 C 97.179688 -147.5625 101.820312 -147.425781 106.59375 -147.15625 C 111.363281 -146.894531 116.003906 -146.367188 120.515625 -145.578125 C 130.585938 -144.242188 136.15625 -139.070312 137.21875 -130.0625 C 138.28125 -122.90625 139.140625 -115.742188 139.796875 -108.578125 C 140.460938 -101.421875 140.664062 -94.265625 140.40625 -87.109375 C 140.40625 -78.890625 140.40625 -70.664062 140.40625 -62.4375 C 140.40625 -54.21875 140.40625 -46 140.40625 -37.78125 C 140.40625 -33.269531 140.003906 -28.765625 139.203125 -24.265625 C 138.671875 -20.816406 137.082031 -17.898438 134.4375 -15.515625 C 130.195312 -11.535156 126.21875 -8.878906 122.5 -7.546875 C 118.789062 -6.222656 114.148438 -5.5625 108.578125 -5.5625 C 101.148438 -5.5625 93.859375 -5.164062 86.703125 -4.375 C 79.546875 -3.582031 72.390625 -2.921875 65.234375 -2.390625 C 57.273438 -1.585938 49.316406 -1.1875 41.359375 -1.1875 C 36.328125 -1.1875 30.757812 -1.582031 24.65625 -2.375 C 18.5625 -3.175781 13.390625 -5.164062 9.140625 -8.34375 C 4.898438 -11.53125 2.515625 -16.4375 1.984375 -23.0625 C 0.921875 -38.976562 0.390625 -54.890625 0.390625 -70.796875 C 0.390625 -86.703125 0.523438 -102.613281 0.796875 -118.53125 C 0.796875 -126.476562 1.0625 -134.492188 1.59375 -142.578125 C 2.125 -150.671875 2.65625 -158.695312 3.1875 -166.65625 C 3.445312 -171.15625 3.90625 -175.660156 4.5625 -180.171875 C 5.226562 -184.679688 5.695312 -189.054688 5.96875 -193.296875 C 6.5 -199.660156 6.894531 -206.085938 7.15625 -212.578125 C 7.425781 -219.078125 7.691406 -225.507812 7.953125 -231.875 C 8.742188 -241.6875 9.9375 -250.96875 11.53125 -259.71875 C 12.0625 -265.019531 13.851562 -269.128906 16.90625 -272.046875 C 19.957031 -274.960938 24 -277.085938 29.03125 -278.421875 C 33.539062 -279.742188 38.179688 -280.46875 42.953125 -280.59375 C 47.722656 -280.726562 52.5 -280.929688 57.28125 -281.203125 C 66.820312 -281.203125 76.429688 -281.132812 86.109375 -281 C 95.785156 -280.863281 105.394531 -280.664062 114.9375 -280.40625 C 120.25 -280.132812 125.6875 -279.335938 131.25 -278.015625 C 137.082031 -277.222656 141.191406 -274.039062 143.578125 -268.46875 C 144.109375 -266.613281 144.835938 -264.890625 145.765625 -263.296875 C 146.691406 -261.703125 147.289062 -260.113281 147.5625 -258.53125 C 148.09375 -256.675781 148.488281 -254.753906 148.75 -252.765625 C 149.019531 -250.773438 148.890625 -248.984375 148.359375 -247.390625 C 147.296875 -243.148438 146.828125 -239.039062 146.953125 -235.0625 C 147.085938 -231.082031 146.890625 -227.101562 146.359375 -223.125 C 146.097656 -218.882812 145.96875 -214.507812 145.96875 -210 C 145.96875 -205.5 145.703125 -200.992188 145.171875 -196.484375 C 145.171875 -194.628906 144.972656 -192.90625 144.578125 -191.3125 C 144.179688 -189.71875 143.847656 -188.125 143.578125 -186.53125 Z M 60.0625 -90.28125 C 59.53125 -85.507812 59.195312 -80.800781 59.0625 -76.15625 C 58.925781 -71.519531 59.125 -66.945312 59.65625 -62.4375 C 60.457031 -56.875 63.242188 -53.695312 68.015625 -52.90625 C 69.078125 -52.90625 70.070312 -52.835938 71 -52.703125 C 71.925781 -52.566406 72.921875 -52.5 73.984375 -52.5 C 75.304688 -52.5 76.695312 -52.566406 78.15625 -52.703125 C 79.613281 -52.835938 81.003906 -53.035156 82.328125 -53.296875 C 87.097656 -53.554688 89.75 -56.34375 90.28125 -61.65625 C 90.8125 -64.570312 91.078125 -67.488281 91.078125 -70.40625 C 91.078125 -73.320312 91.078125 -76.101562 91.078125 -78.75 C 91.078125 -82.457031 89.617188 -85.109375 86.703125 -86.703125 C 83.785156 -88.296875 80.738281 -89.09375 77.5625 -89.09375 C 74.90625 -89.625 72.316406 -89.953125 69.796875 -90.078125 C 67.285156 -90.210938 64.832031 -90.414062 62.4375 -90.6875 C 62.175781 -90.6875 61.847656 -90.617188 61.453125 -90.484375 C 61.054688 -90.347656 60.59375 -90.28125 60.0625 -90.28125 Z M 60.0625 -90.28125 "/></g></g></g><g fill="#ffffff" fill-opacity="1"><g transform="translate(638.511534, 696.41783)"><g><path d="M 141.59375 -192.109375 C 140 -190.253906 138.273438 -188.660156 136.421875 -187.328125 C 134.566406 -186.003906 132.3125 -185.078125 129.65625 -184.546875 C 128.070312 -184.285156 126.550781 -183.890625 125.09375 -183.359375 C 123.632812 -182.828125 122.238281 -182.425781 120.90625 -182.15625 C 117.195312 -181.894531 113.421875 -181.765625 109.578125 -181.765625 C 105.734375 -181.765625 101.820312 -181.628906 97.84375 -181.359375 C 92.269531 -184.015625 89.351562 -188.523438 89.09375 -194.890625 C 88.820312 -197.804688 88.421875 -200.585938 87.890625 -203.234375 C 87.367188 -205.890625 86.84375 -208.675781 86.3125 -211.59375 C 84.976562 -211.863281 83.648438 -212 82.328125 -212 C 81.003906 -212 79.679688 -212 78.359375 -212 C 75.441406 -212 72.457031 -211.734375 69.40625 -211.203125 C 66.351562 -210.671875 63.367188 -209.738281 60.453125 -208.40625 C 60.191406 -207.082031 59.796875 -205.757812 59.265625 -204.4375 C 58.734375 -203.113281 58.332031 -201.785156 58.0625 -200.453125 C 58.0625 -195.953125 58.0625 -191.378906 58.0625 -186.734375 C 58.0625 -182.097656 58.0625 -177.390625 58.0625 -172.609375 C 59.125 -172.609375 60.050781 -172.609375 60.84375 -172.609375 C 61.644531 -172.609375 62.578125 -172.609375 63.640625 -172.609375 C 67.347656 -172.878906 70.988281 -173.015625 74.5625 -173.015625 C 78.144531 -173.015625 81.660156 -173.144531 85.109375 -173.40625 C 90.148438 -173.40625 94.457031 -172.015625 98.03125 -169.234375 C 101.613281 -166.453125 103.40625 -162.410156 103.40625 -157.109375 C 103.675781 -153.390625 104.007812 -149.609375 104.40625 -145.765625 C 104.800781 -141.921875 105.132812 -138.144531 105.40625 -134.4375 C 105.40625 -132.3125 105.335938 -130.117188 105.203125 -127.859375 C 105.066406 -125.609375 104.867188 -123.425781 104.609375 -121.3125 C 103.804688 -116.007812 100.890625 -112.691406 95.859375 -111.359375 C 93.992188 -110.828125 92.203125 -110.429688 90.484375 -110.171875 C 88.765625 -109.910156 87.109375 -109.644531 85.515625 -109.375 C 82.859375 -109.113281 80.335938 -108.984375 77.953125 -108.984375 C 75.566406 -108.984375 73.179688 -108.984375 70.796875 -108.984375 C 69.203125 -108.710938 67.609375 -108.507812 66.015625 -108.375 C 64.429688 -108.25 62.84375 -107.921875 61.25 -107.390625 C 60.71875 -106.328125 60.453125 -105.53125 60.453125 -105 C 60.453125 -99.695312 60.453125 -94.328125 60.453125 -88.890625 C 60.453125 -83.453125 60.453125 -78.082031 60.453125 -72.78125 C 60.984375 -65.363281 64.960938 -61.253906 72.390625 -60.453125 C 72.648438 -60.453125 72.910156 -60.453125 73.171875 -60.453125 C 73.441406 -60.453125 73.710938 -60.453125 73.984375 -60.453125 C 76.097656 -60.453125 78.148438 -60.453125 80.140625 -60.453125 C 82.128906 -60.453125 84.1875 -60.320312 86.3125 -60.0625 C 88.425781 -62.976562 89.414062 -66.222656 89.28125 -69.796875 C 89.15625 -73.378906 89.625 -77.160156 90.6875 -81.140625 C 91.476562 -82.734375 93.660156 -83.992188 97.234375 -84.921875 C 100.816406 -85.847656 104.863281 -86.441406 109.375 -86.703125 C 113.882812 -86.972656 118.128906 -87.171875 122.109375 -87.296875 C 126.085938 -87.429688 128.867188 -87.5 130.453125 -87.5 C 132.835938 -87.769531 134.890625 -87.175781 136.609375 -85.71875 C 138.335938 -84.257812 139.734375 -82.597656 140.796875 -80.734375 C 142.390625 -78.347656 143.1875 -75.832031 143.1875 -73.1875 C 143.71875 -69.738281 144.113281 -66.15625 144.375 -62.4375 C 144.644531 -58.726562 144.78125 -55.019531 144.78125 -51.3125 C 144.78125 -47.332031 144.78125 -43.351562 144.78125 -39.375 C 144.78125 -35.394531 144.515625 -31.414062 143.984375 -27.4375 C 143.179688 -21.070312 140.265625 -15.90625 135.234375 -11.9375 C 130.722656 -8.488281 124.488281 -5.898438 116.53125 -4.171875 C 108.582031 -2.453125 100.429688 -1.390625 92.078125 -0.984375 C 83.722656 -0.585938 76.5 -0.390625 70.40625 -0.390625 C 65.363281 -0.390625 60.457031 -0.519531 55.6875 -0.78125 C 50.914062 -1.050781 46.007812 -1.585938 40.96875 -2.390625 C 28.238281 -3.972656 19.351562 -7.484375 14.3125 -12.921875 C 9.28125 -18.359375 5.570312 -27.3125 3.1875 -39.78125 C 1.320312 -48.257812 0.457031 -56.941406 0.59375 -65.828125 C 0.726562 -74.710938 0.660156 -83.53125 0.390625 -92.28125 C 0.128906 -110.039062 0.128906 -128.066406 0.390625 -146.359375 C 0.660156 -153.253906 1.0625 -160.082031 1.59375 -166.84375 C 2.125 -173.601562 2.519531 -180.300781 2.78125 -186.9375 C 3.3125 -195.414062 3.507812 -204.160156 3.375 -213.171875 C 3.25 -222.191406 4.242188 -230.941406 6.359375 -239.421875 C 8.484375 -247.910156 12.859375 -255.472656 19.484375 -262.109375 C 24.523438 -267.410156 30.691406 -271.320312 37.984375 -273.84375 C 45.273438 -276.363281 52.832031 -278.019531 60.65625 -278.8125 C 68.476562 -279.601562 75.835938 -280 82.734375 -280 C 86.972656 -280 91.210938 -279.929688 95.453125 -279.796875 C 99.691406 -279.671875 103.9375 -279.609375 108.1875 -279.609375 C 113.488281 -279.609375 119.253906 -279.078125 125.484375 -278.015625 C 131.710938 -276.953125 135.890625 -273.640625 138.015625 -268.078125 C 138.804688 -266.210938 139.597656 -264.351562 140.390625 -262.5 C 141.191406 -260.644531 141.988281 -258.789062 142.78125 -256.9375 C 143.582031 -254.8125 143.914062 -252.554688 143.78125 -250.171875 C 143.644531 -247.785156 143.3125 -245.53125 142.78125 -243.40625 C 142.519531 -242.082031 142.390625 -240.757812 142.390625 -239.4375 C 142.390625 -238.113281 142.390625 -236.785156 142.390625 -235.453125 C 142.117188 -228.296875 141.914062 -221.070312 141.78125 -213.78125 C 141.65625 -206.488281 141.59375 -199.265625 141.59375 -192.109375 Z M 141.59375 -192.109375 "/></g></g></g><g fill="#ffffff" fill-opacity="1"><g transform="translate(791.238563, 696.41783)"><g><path d="M 101.421875 -113.75 C 106.460938 -98.632812 111.765625 -83.648438 117.328125 -68.796875 C 122.898438 -53.953125 129 -39.238281 135.625 -24.65625 C 137.21875 -21.207031 138.609375 -17.492188 139.796875 -13.515625 C 140.992188 -9.546875 140.53125 -5.96875 138.40625 -2.78125 C 136.550781 0.664062 133.4375 2.851562 129.0625 3.78125 C 124.6875 4.707031 120.378906 5.171875 116.140625 5.171875 C 114.285156 5.171875 112.628906 5.101562 111.171875 4.96875 C 109.710938 4.832031 108.316406 4.765625 106.984375 4.765625 C 101.148438 4.765625 96.84375 3.835938 94.0625 1.984375 C 91.28125 0.128906 88.695312 -3.316406 86.3125 -8.359375 C 83.65625 -14.453125 80.9375 -20.613281 78.15625 -26.84375 C 75.375 -33.070312 72.65625 -39.367188 70 -45.734375 C 67.351562 -51.304688 64.96875 -57.070312 62.84375 -63.03125 C 60.71875 -69 58.195312 -74.632812 55.28125 -79.9375 C 55.019531 -76.5 54.6875 -72.988281 54.28125 -69.40625 C 53.882812 -65.820312 53.6875 -62.175781 53.6875 -58.46875 C 54.21875 -50.507812 54.414062 -42.484375 54.28125 -34.390625 C 54.15625 -26.304688 53.429688 -18.289062 52.109375 -10.34375 C 51.046875 -3.707031 47.53125 0.335938 41.5625 1.796875 C 35.59375 3.253906 29.828125 3.984375 24.265625 3.984375 C 19.222656 3.984375 13.984375 3.117188 8.546875 1.390625 C 3.109375 -0.328125 0.390625 -4.367188 0.390625 -10.734375 C 0.660156 -17.898438 0.925781 -25.0625 1.1875 -32.21875 C 1.457031 -39.375 1.59375 -46.664062 1.59375 -54.09375 C 1.59375 -60.1875 1.457031 -66.21875 1.1875 -72.1875 C 0.925781 -78.15625 0.796875 -84.054688 0.796875 -89.890625 C 0.523438 -93.066406 0.320312 -96.242188 0.1875 -99.421875 C 0.0625 -102.609375 0.128906 -105.796875 0.390625 -108.984375 C 0.921875 -113.484375 1.382812 -117.921875 1.78125 -122.296875 C 2.1875 -126.671875 2.519531 -130.984375 2.78125 -135.234375 C 3.050781 -136.816406 3.1875 -138.46875 3.1875 -140.1875 C 3.1875 -141.914062 3.1875 -143.710938 3.1875 -145.578125 C 2.382812 -154.054688 2.113281 -162.601562 2.375 -171.21875 C 2.644531 -179.84375 2.914062 -188.265625 3.1875 -196.484375 C 3.1875 -197.273438 3.1875 -198 3.1875 -198.65625 C 3.1875 -199.320312 3.1875 -199.921875 3.1875 -200.453125 C 3.71875 -208.148438 4.046875 -215.90625 4.171875 -223.71875 C 4.304688 -231.539062 4.503906 -239.300781 4.765625 -247 C 5.296875 -257.070312 7.351562 -265.15625 10.9375 -271.25 C 14.519531 -277.351562 22.007812 -280.40625 33.40625 -280.40625 C 41.09375 -280.40625 48.78125 -280.46875 56.46875 -280.59375 C 64.164062 -280.726562 71.726562 -280.796875 79.15625 -280.796875 C 82.863281 -280.796875 86.707031 -280.796875 90.6875 -280.796875 C 94.664062 -280.796875 98.507812 -280.664062 102.21875 -280.40625 C 108.3125 -280.132812 114.34375 -279.070312 120.3125 -277.21875 C 126.28125 -275.363281 130.988281 -271.914062 134.4375 -266.875 C 137.882812 -262.101562 139.9375 -256.535156 140.59375 -250.171875 C 141.257812 -243.804688 141.328125 -237.375 140.796875 -230.875 C 140.265625 -224.382812 139.734375 -218.351562 139.203125 -212.78125 C 138.941406 -206.15625 138.742188 -199.523438 138.609375 -192.890625 C 138.472656 -186.265625 138.140625 -179.503906 137.609375 -172.609375 C 137.347656 -166.773438 136.753906 -160.546875 135.828125 -153.921875 C 134.898438 -147.296875 132.910156 -141.265625 129.859375 -135.828125 C 126.804688 -130.390625 122.097656 -126.347656 115.734375 -123.703125 C 111.765625 -122.640625 107.789062 -121.84375 103.8125 -121.3125 C 103.28125 -121.039062 102.8125 -120.90625 102.40625 -120.90625 C 102.007812 -120.90625 101.550781 -120.640625 101.03125 -120.109375 C 100.5 -119.585938 100.296875 -118.925781 100.421875 -118.125 C 100.554688 -117.332031 100.757812 -116.535156 101.03125 -115.734375 C 101.03125 -115.472656 101.09375 -115.207031 101.21875 -114.9375 C 101.351562 -114.675781 101.421875 -114.28125 101.421875 -113.75 Z M 78.359375 -178.578125 C 81.273438 -180.171875 83.0625 -182.160156 83.71875 -184.546875 C 84.382812 -186.929688 84.847656 -189.453125 85.109375 -192.109375 C 85.109375 -195.023438 85.175781 -197.875 85.3125 -200.65625 C 85.445312 -203.4375 85.515625 -206.285156 85.515625 -209.203125 C 85.515625 -210.535156 85.515625 -211.992188 85.515625 -213.578125 C 85.515625 -215.171875 85.378906 -216.628906 85.109375 -217.953125 C 85.109375 -221.140625 83.519531 -222.863281 80.34375 -223.125 C 78.21875 -223.65625 76.160156 -224.1875 74.171875 -224.71875 C 72.179688 -225.25 70.128906 -225.644531 68.015625 -225.90625 C 66.953125 -226.175781 65.890625 -226.375 64.828125 -226.5 C 63.765625 -226.632812 62.707031 -226.703125 61.65625 -226.703125 C 59.53125 -226.703125 57.804688 -226.175781 56.484375 -225.125 C 55.148438 -221.40625 54.148438 -216.097656 53.484375 -209.203125 C 52.828125 -202.316406 52.628906 -195.625 52.890625 -189.125 C 53.160156 -182.625 53.828125 -177.914062 54.890625 -175 C 55.421875 -175 55.953125 -174.929688 56.484375 -174.796875 C 57.015625 -174.671875 57.539062 -174.609375 58.0625 -174.609375 C 61.507812 -174.609375 64.890625 -175.203125 68.203125 -176.390625 C 71.523438 -177.585938 74.910156 -178.316406 78.359375 -178.578125 Z M 78.359375 -178.578125 "/></g></g></g></g></g></svg>